<svg width="1024" height="1024" viewBox="0 0 1024 1024" fill="none" xmlns="http://www.w3.org/2000/svg">
<path d="M525.23 96.824C539.9 100.001 547.185 100.755 561.645 107.475C589.45 120.399 610.06 138.267 621.2 167.381C627.77 186.407 631.015 215.943 618.73 233.448C612.335 246.707 598.08 255.768 585.47 262.229C622.635 267.673 648.285 247.555 654.085 210.244C655.45 201.44 654.075 193.294 653.82 184.576C706.635 230.718 739.14 295.822 744.275 365.768C744.4 367.55 744.56 369.465 744.635 371.238C745.455 378.679 745.7 404.275 744.485 411.027C744.845 433.979 731.405 482.56 719.1 502.055C717.06 481.136 713.535 454.829 706.2 434.941C705.965 461.751 696.485 497.906 685.225 522.26C669.005 557.36 635.265 594.26 598.285 607.475C602.14 599.895 604.995 591.115 607.45 582.97C617.07 551.07 615.445 524.085 612.415 491.604C603.025 524.75 590.39 544.97 571.595 572.97C576.275 581.82 580.575 590.865 584.485 600.08C574.465 610.245 561.94 619.945 549.95 627.655C542.265 621.035 532.17 609.905 525.58 602.035C516.605 604.615 500.37 607.775 490.969 609.33C487.48 618.62 482.309 638.76 479.635 648.93C465.935 645.515 447.008 643.895 434.45 639.87C431.645 630.825 429.761 615.74 427.708 605.88C417.798 602.26 407.095 598.58 397.376 594.645C388.246 598.57 377.365 604.41 368.346 608.94C360.879 602.435 345.752 582.455 340.272 573.525C351.5 559.15 369.184 551.285 358.852 527.54C352.412 512.74 337.39 510.01 323.52 504.96C320.505 493.299 322.177 474.021 324.394 462.018C333.507 458.677 349.869 459.011 355.336 454.459C359.352 447.118 356.809 414.322 362.176 409.594C367.362 408.096 384.303 409.803 390.533 410.018C391.177 410.04 394.346 410.625 394.534 410.888C398.444 416.345 401.457 422.344 405.686 427.646C413.221 437.453 424.843 443.62 437.121 444.768C458.368 446.754 479.821 433.315 481.314 410.828C482.426 394.079 475.057 378.314 464.292 365.858C440.245 338.032 403.88 320.512 367.405 317.262C350.047 315.826 330.193 318.225 315.336 327.641C309.458 331.366 304.347 335.909 299.073 340.436C298.953 340.361 298.833 340.287 298.713 340.212L298.123 339.823C292.752 336.373 287.102 330.026 282.801 325.187C265.291 305.488 251.92 283.192 246.599 257.102C274.92 250.054 292.849 236.492 313.095 216.707C319.064 210.874 328.166 201.834 334.665 196.695C358.247 178.112 385.654 165.756 415.238 160.393C444.155 155.116 473.664 159.013 502.46 163.199C520.43 165.81 537.69 159.449 540.2 139.13C542.26 122.447 535.105 109.544 525.23 96.824ZM416.056 494.937C415.848 512.375 417.992 525.7 430.754 538.945C431.097 539.3 431.443 539.65 431.794 539.995C444.272 550.995 459.596 556.82 476.363 555.75C494.805 554.63 512.02 546.135 524.13 532.185C544.77 508.31 547.935 472.774 548.51 442.448C548.57 439.296 548.47 431.172 547.69 428.331C543.735 435.448 541.085 441.09 536.35 447.938C521.325 469.444 499.344 485.107 474.112 492.281C456.107 497.379 434.319 498.771 416.056 494.937Z" fill="#DF2C41"/>
<path d="M621.2 167.38C627.77 186.407 631.015 215.942 618.73 233.447C618.79 226.104 626.27 211.038 625.635 199.699C625.25 192.86 620.42 170.141 621.2 167.38Z" fill="#DB191F"/>
<path d="M744.635 371.238C745.455 378.679 745.7 404.275 744.485 411.027C742.395 405.075 743.245 377.63 744.635 371.238Z" fill="#DB191F"/>
<path d="M339.376 733.205C341.128 732.905 347.264 732.91 349.242 732.9C365.383 732.835 381.788 738.73 393.179 750.35C407.102 764.56 411.225 784.705 409.756 803.97C409.517 807.095 409.275 810.215 409.264 813.355L409.266 813.985C380.603 814.75 348.657 814.025 319.735 814C320.88 819.015 321.953 824.285 324.736 828.68C338.86 850.99 368.012 843.725 386.425 832.635C388.376 835.655 390.77 838.855 392.884 841.805C396.768 847.06 400.587 852.36 404.344 857.71C392.011 867 380.072 871.86 364.779 873.59C322.215 878.4 285.762 856.83 281.344 812.045C277.361 771.665 297.13 737.585 339.376 733.205ZM320.694 788L350.875 788.05C358.872 788.07 366.975 788.02 374.961 788.13C371.012 771.49 363.411 761.285 344.545 763.14C330.275 765.89 322.842 773.815 320.694 788Z" fill="#DF2C41"/>
<path d="M170.808 748.345C170.898 749.47 170.869 750.765 171.299 751.725C175.677 746.345 180.638 740.8 187.122 737.91C213.262 726.24 248.654 734.165 257.612 764.155C261.94 778.64 261.063 791.2 261.04 806.06L260.983 847.14C260.977 853.42 260.656 865.18 261.557 871.095C250.572 870.605 235.968 870.735 224.849 870.95C225.007 854.68 225.052 838.41 224.984 822.14C224.972 800.665 229.523 765.785 196.447 768.28C179.497 769.555 173.487 784.805 173.153 799.63C173.105 823.22 172.528 847.505 173.142 871.075C160.93 870.555 146.723 870.855 134.352 870.855L134.275 792.25C134.289 780.515 133.824 764.63 134.489 753.315C134.086 749.59 134.29 739.255 134.277 735.135C146.333 734.92 158.848 735.14 171.036 734.995C171.053 738.825 171.253 744.69 170.808 748.345Z" fill="#DF2C41"/>
<path d="M472.228 733.175C474.366 732.735 479.17 732.9 481.504 732.865C499.46 732.625 518.045 737.52 532.625 748.22C530.99 752.505 521.975 771.585 519.68 775.12C507.86 767.725 495.848 761.95 481.651 762.005C476.946 762.025 468.935 763.185 465.987 767.05C456.728 779.18 479.999 782.93 487.234 785.42C509.775 791.41 534.025 797.955 535.98 825.265C538.18 855.97 513.14 872.685 485.125 874.03C458.236 874.695 445.539 871.825 422.612 858.26C427.239 849.795 432.274 839.17 436.714 830.445C440.205 831.835 444.912 834.75 448.545 836.515C458.613 841.405 469.135 844.155 480.396 843.61C486.471 843.32 493.498 842.055 497.836 837.365C499.553 835.51 500.47 831.705 500 829.525C497.662 818.67 468.961 816.36 459.314 812.195C452.479 809.955 446.671 807.285 440.774 803.055C424.652 791.485 423.689 766.425 435.329 751.305C444.204 739.775 457.994 735.11 472.228 733.175Z" fill="#DF2C41"/>
<path d="M601 702.785C603.24 702.54 605.83 702.465 608.11 702.34C607.945 713.3 607.92 724.265 608.03 735.225C618.885 734.89 631.21 735.13 642.16 735.125C641.83 741.535 641.67 760.045 642.415 766.175C634.775 766.2 614.52 766.8 607.96 766.02L607.94 801.515C607.905 829.535 604.915 849.705 642.25 838.25C642.82 841.995 645.19 866.105 644.55 868.675C641.115 871.35 632.165 872.235 627.625 872.995C621.955 873.195 616.385 873.345 610.83 873.11C567.5 871.315 571.435 830.175 571.955 798.305C572.13 787.865 571.39 776.63 572.07 766.085C563.88 766.26 556.335 766.05 548.08 766.54C548.32 755.985 548.325 745.43 548.1 734.875C555.415 735.255 564.255 735.125 571.69 735.215C571.305 725.51 571.76 714.4 571.98 704.615C581.665 704.22 591.34 703.615 601 702.785Z" fill="#DF2C41"/>
<path d="M842.345 703.545C846.385 702.8 854.045 702.475 858.37 702.3C857.24 713.105 858.83 725.56 858.1 735.545C865.425 734.895 884.545 734.845 892.14 735.225C891.965 745.565 891.93 755.905 892.03 766.245C887.615 766.22 860.19 765.32 858.235 766.795C858.16 767.66 858.095 768.53 858.04 769.395C859.475 787.405 857.075 809.36 858.505 827.685C859.215 829.17 859.595 832.22 860.495 833.995C866.005 844.885 882.14 841.6 891.29 838.035C892.475 843.88 893.39 861.535 894.235 869.23C877.335 875.15 847.595 877.135 833.875 862.985C819.795 848.465 822 825.92 822.015 807.29L822.055 766.12C814.59 766.185 807.13 766.31 799.67 766.49C799.22 757.235 799.56 744.62 799.555 735.11C806.265 734.805 815.465 735.09 822.33 735.07C821.68 726.23 821.98 714.335 821.795 705.105C828.625 704.345 835.48 703.83 842.345 703.545Z" fill="#DF2C41"/>
<path d="M858.04 769.395C859.475 787.405 857.075 809.36 858.505 827.685C855.445 823.345 855.58 773.845 858.04 769.395Z" fill="#DB191F"/>
<path d="M842.345 703.545C846.385 702.8 854.045 702.475 858.37 702.3C857.24 713.105 858.83 725.56 858.1 735.545C857.815 735.68 858.06 735.61 856.99 735.51C855.98 733.37 856.455 708.745 856.48 704.285C852.635 704.495 845.325 705.445 842.345 703.545Z" fill="#DB191F"/>
<path d="M769.653 733.504C772.838 732.066 761.258 722.976 778.113 733.459C794.968 743.942 778.153 769.989 778.153 786.129C778.158 813.579 777.763 841.909 778.263 869.304L758.063 869.184L739.723 869.224C739.438 859.054 739.748 847.554 739.733 837.264L739.623 766.359C739.588 755.534 730.468 746.442 739.468 733.454C748.468 720.466 766.468 734.942 769.653 733.504Z" fill="#DF2C41"/>
<path d="M654.535 780.965C676.83 781.145 699.205 780.795 721.5 781.11C721.395 788.025 722.115 808.685 721.17 814.275C716.03 813.715 703.72 814.03 698.285 814.035L654.495 814.07L654.535 780.965Z" fill="#DF2C41"/>
<path d="M748.403 677.71C770.679 677.341 802.45 645.246 790.45 693.98C778.45 742.714 767.436 685.272 751.948 711.741C736.46 738.209 710.52 704.901 709.539 695.475C708.559 686.048 725.99 678.08 748.403 677.71Z" fill="#DF2C41"/>
</svg>
